<?xml version="1.0" encoding="iso-8859-1"?>
<!-- Generator: Adobe Illustrator 19.0.0, SVG Export Plug-In . SVG Version: 6.00 Build 0)  -->
<svg version="1.1" id="Layer_1" xmlns="http://www.w3.org/2000/svg" xmlns:xlink="http://www.w3.org/1999/xlink" x="0px" y="0px"
	 viewBox="0 0 512.8 512.8" style="enable-background:new 0 0 512.8 512.8;" xml:space="preserve">
<g>
	<path style="fill:#CC9966;" d="M256,275.6H64v32.8c0,8,6.4,15.2,15.2,15.2H200h56h56h120.8c8,0,15.2-6.4,15.2-15.2v-32.8H256z
		 M256,315.6c-8.8,0-16-7.2-16-16s7.2-16,16-16c8.8,0,16,7.2,16,16S264.8,315.6,256,315.6z"/>
	<path style="fill:#CC9966;" d="M456,411.6v16h-72v-16c0-4.8,4-8,8-8h56C452,403.6,456,407.6,456,411.6z"/>
</g>
<rect x="320" y="147.6" style="fill:#42210B;" width="16" height="16"/>
<path style="fill:#FFC600;" d="M304,187.6h32c0,8.8-7.2,16-16,16S304,196.4,304,187.6z"/>
<path style="fill:#FF9900;" d="M336,163.6v-16h-16v16H336z M320,107.6c22.4,0,40,17.6,40,40v24h-16h-48h-16v-8h24v-16h-24
	C280,125.2,297.6,107.6,320,107.6z"/>
<path style="fill:#FFF8EF;" d="M88,75.6h336v80.8l-34.4-37.6c-1.6-2.4-3.2-3.2-5.6-3.2h-18.4c-10.4-14.4-27.2-24-45.6-24
	c-31.2,0-56,24.8-56,56v29.6c0,5.6,4.8,10.4,10.4,10.4H288c0,17.6,14.4,32,32,32s32-14.4,32-32h13.6c5.6,0,10.4-4.8,10.4-10.4v-29.6
	c0-5.6-0.8-11.2-2.4-16h6.4l44,48v56H88V75.6z"/>
<path style="fill:#CC9966;" d="M305.6,391.6l24,36H183.2l21.6-32H232v-16h-24v-40h96v48C304,389.2,304.8,390.8,305.6,391.6z
	 M248,379.6v16h24v-16H248z"/>
<g>
	<rect x="248" y="379.6" style="fill:#42210B;" width="24" height="16"/>
	<circle style="fill:#42210B;" cx="256" cy="299.6" r="16"/>
</g>
<polygon style="fill:#FF9900;" points="56,387.6 104,387.6 104,427.6 56,427.6 56,411.6 72,411.6 72,395.6 56,395.6 "/>
<path style="fill:#E0CBB5;" d="M64,66.8c0-8,6.4-15.2,15.2-15.2h354.4c8,0,15.2,6.4,15.2,15.2v116l-8-8.8V67.6c0-4.8-4-8-8-8H80
	c-4.8,0-8,3.2-8,8v176c0,4,3.2,8,8,8h352c4,0,8-4,8-8V198l8,8.8v52.8H64V66.8z"/>
<polygon style="fill:#996632;" points="344,443.6 376,443.6 464,443.6 496,443.6 496,459.6 16,459.6 16,443.6 48,443.6 112,443.6 
	168,443.6 "/>
<path style="fill:#42210B;" d="M496,255.6c0-2.4-1.6-4-4-4s-4,1.6-4,4s1.6,4,4,4S496,258,496,255.6z M304,339.6h-96v40h24v16h-28
	l-21.6,32h146.4l-24-36c0-0.8-0.8-2.4-0.8-4V339.6z M456,427.6v-16c0-4.8-4-8-8-8h-56c-4.8,0-8,4-8,8v16H456z M336,187.6h-32
	c0,8.8,7.2,16,16,16S336,196.4,336,187.6z M348,427.6h20v-16c0-13.6,11.2-24,24-24h56c0.8,0,1.6,0,1.6,0l29.6-116.8
	c-4-4-7.2-8.8-7.2-15.2c0-5.6,2.4-11.2,6.4-14.4l-14.4-16v84c0,16.8-13.6,31.2-31.2,31.2H320V386L348,427.6z M352,187.6
	c0,17.6-14.4,32-32,32s-32-14.4-32-32h-13.6c-5.6,0-10.4-4.8-10.4-10.4v-29.6c0-31.2,24.8-56,56-56c19.2,0,36,9.6,45.6,24H384
	c2.4,0,4,0.8,5.6,2.4l34.4,37.6v-80H88v160h336v-56l-44-48h-6.4c1.6,4.8,2.4,10.4,2.4,16v29.6c0,5.6-4.8,10.4-10.4,10.4H352z
	 M360,147.6c0-22.4-17.6-40-40-40s-40,17.6-40,40h24v16h-24v8h16h48h16V147.6z M112,443.6H48H16v16h480v-16h-32h-88h-32H168H112z
	 M79.2,323.6H200h56h56h120.8c8,0,15.2-6.4,15.2-15.2v-32.8H256H64v32.8C64,317.2,70.4,323.6,79.2,323.6z M104,387.6H56v8h16v16H56
	v16h48V387.6z M72,243.6v-176c0-4.8,3.2-8,8-8h352c4,0,8,3.2,8,8V174l8,8.8v-116c0-8-6.4-15.2-15.2-15.2H79.2
	c-8,0-15.2,6.4-15.2,15.2v192.8h384v-52.8l-8-8.8v45.6c0,4-4,8-8,8H80C75.2,251.6,72,247.6,72,243.6z M72,371.6h8v-24h16v24h16
	c4.8,0,8,4,8,8v48h44l28-42.4v-45.6H96H80h-0.8C61.6,339.6,48,326,48,308.4V66.8c0-17.6,13.6-31.2,31.2-31.2h354.4
	c16.8,0,31.2,13.6,31.2,31.2v134.4l32,35.2c8.8,1.6,16,9.6,16,20s-8,18.4-17.6,20l-29.6,119.2c4.8,4.8,7.2,10.4,7.2,17.6v16h32
	c4,0,8,4,8,8v32c0,4-4,8-8,8H8c-4.8,0-8-4-8-8v-32c0-4,3.2-8,8-8h32v-48c0-4,3.2-8,8-8h8v-16h16V371.6z"/>
<path style="fill:#D9CDC1;" d="M184,75.6l-60,11.2c-16,3.2-28,16.8-28,33.6V198c0,12,9.6,22.4,21.6,24L272,235.6H88v-160H184z"/>
<g>
	<path style="fill:#B37D4D;" d="M440,275.6v28c0,6.4-5.6,12-12,12H84c-6.4,0-12-5.6-12-12v-28h-8v32.8c0,8,6.4,15.2,15.2,15.2H200
		h56h56h120.8c8,0,15.2-6.4,15.2-15.2v-32.8H440z"/>
	<polygon style="fill:#B37D4D;" points="208,379.6 224,347.6 304,339.6 208,339.6 	"/>
	<path style="fill:#B37D4D;" d="M392,427.6V418c0-4,2.4-7.2,6.4-7.2l49.6-7.2h-64v24H392z"/>
</g>
<g>
</g>
<g>
</g>
<g>
</g>
<g>
</g>
<g>
</g>
<g>
</g>
<g>
</g>
<g>
</g>
<g>
</g>
<g>
</g>
<g>
</g>
<g>
</g>
<g>
</g>
<g>
</g>
<g>
</g>
</svg>
