<?xml version="1.0" encoding="iso-8859-1"?>
<!-- Generator: Adobe Illustrator 19.0.0, SVG Export Plug-In . SVG Version: 6.00 Build 0)  -->
<svg version="1.1" id="Layer_1" xmlns="http://www.w3.org/2000/svg" xmlns:xlink="http://www.w3.org/1999/xlink" x="0px" y="0px"
	 viewBox="0 0 452.8 452.8" style="enable-background:new 0 0 452.8 452.8;" xml:space="preserve">
<circle style="fill:#FF9900;" cx="208.5" cy="208.8" r="144"/>
<circle style="fill:#FFC600;" cx="208.5" cy="208.8" r="72"/>
<g>
	<path style="fill:#FF9900;" d="M435.7,415.2c0.8,0.8,0.8,1.6,0,2.4L417.3,436c-0.8,0.8-1.6,0.8-2.4,0l-11.2-11.2l20.8-20.8
		L435.7,415.2z"/>
	<path style="fill:#FF9900;" d="M413.3,392.8l-20.8,20.8l-76-76c7.2-6.4,14.4-13.6,20.8-20.8L413.3,392.8z"/>
</g>
<path style="fill:#42210B;" d="M208.5,264.8v16c-40,0-72-32-72-72h16C152.5,240,177.3,264.8,208.5,264.8z"/>
<path style="fill:#2FB4C2;" d="M168.5,36v132.8H34.1C45.3,72.8,126.9,44,168.5,36z"/>
<path style="fill:#1D9AAE;" d="M16.5,168.8C21.3,44,135.7,21.6,168.5,17.6V36C126.9,44,45.3,72.8,34.1,168.8H16.5z"/>
<path style="fill:#42210B;" d="M392.5,413.6l20.8-20.8l-76-76c-6.4,7.2-13.6,14.4-20.8,20.8L392.5,413.6z M435.7,418.4
	c0.8-0.8,0.8-1.6,0-2.4l-11.2-12l-20.8,20.8l11.2,11.2c0.8,0.8,1.6,0.8,2.4,0L435.7,418.4z M56.5,208.8c0,84,68,152,152,152
	c34.4,0,66.4-12,92-31.2l28.8-28.8c19.2-25.6,31.2-57.6,31.2-92c0-84-68-152-152-152v-16c92.8,0,168,75.2,168,168
	c0,35.2-11.2,68-29.6,95.2l100,100c7.2,7.2,7.2,18.4,0,24.8l-18.4,18.4c-3.2,3.2-8,5.6-12.8,5.6s-8.8-1.6-12.8-5.6l-99.2-100
	c-27.2,18.4-60,29.6-95.2,29.6c-92.8,0-168-75.2-168-168H56.5z"/>
<path style="fill:#2FB4C2;" d="M104.5,216.8c4,53.6,48.8,96,104,96c57.6,0,104-46.4,104-104c0-54.4-42.4-100-96-104v-16
	c62.4,4,112,56,112,120c0,66.4-53.6,120-120,120c-63.2,0-116-49.6-120-112H104.5z"/>
<g>
	<path style="fill:#42210B;" d="M208.5,312.8c-54.4,0-100-42.4-104-96h-16c4,62.4,56,112,120,112c66.4,0,120-53.6,120-120
		c0-63.2-49.6-116-112-120v16c53.6,4,96,48.8,96,104C312.5,266.4,266.1,312.8,208.5,312.8z M208.5,344.8c-75.2,0-136-60.8-136-136
		v-8h48v8c0,48.8,39.2,88,88,88s88-39.2,88-88s-39.2-88-88-88h-8v-48h8c75.2,0,136,60.8,136,136S283.7,344.8,208.5,344.8z"/>
	<path style="fill:#42210B;" d="M184.5,184.8h-64H0.5v-8c0-165.6,173.6-176,176-176l8-0.8v120.8V184.8z M168.5,168.8V36V17.6
		c-32.8,4-147.2,26.4-152,151.2h17.6H168.5z"/>
</g>
<g>
</g>
<g>
</g>
<g>
</g>
<g>
</g>
<g>
</g>
<g>
</g>
<g>
</g>
<g>
</g>
<g>
</g>
<g>
</g>
<g>
</g>
<g>
</g>
<g>
</g>
<g>
</g>
<g>
</g>
</svg>
