<svg xmlns="http://www.w3.org/2000/svg" viewBox="0 0 647 788.99"><defs><style>.cls-1{fill:#2859a4;}.cls-2{fill:#6f2380;}.cls-3{fill:#f9b903;}</style></defs><title>Ativo 4</title><g id="Camada_2" data-name="Camada 2"><g id="Camada_1-2" data-name="Camada 1"><path class="cls-1" d="M99,332.3H90.56a20.2,20.2,0,0,0-11.48,3.24q7.89,9.24,7.9,24.2v19.95q0,17-10.46,26.56T44.89,416.1q-14.55,0-14.54,13.22,0,6,3.82,8.73t12.76,2.74h14.9Q97,440.79,97,469.91v3.26q0,32.13-46.44,32.13H40q-25.91,0-40-7.78v-17q16.82,9.18,39.75,9.18h9.17Q79,489.66,79,473.29v-2.48q0-7.19-3.7-10.78t-14.9-3.6H44q-15,0-23-5.5t-8-16v-4a16,16,0,0,1,3.62-10.75,17.9,17.9,0,0,1,9.12-5.76Q1,407.41,1,379.88V360.35Q1,343,11.64,333.07T42,323.12q19.74,0,29.75,6.89,5.13-15.3,23.34-15.3H99ZM68,380V360q0-10.72-5.74-16t-18.76-5.24q-13,0-18.75,5.24T19,360v20q0,10.74,5.74,16t18.75,5.24q13,0,18.76-5.24T68,380Z"/><path class="cls-1" d="M136.2,310q-11.13,0-11.13-11.51T136.2,287q11.13,0,11.13,11.5T136.2,310Zm-8.95,16.47h18V468.16h-18Z"/><path class="cls-2" d="M233.6,325.46H240v16.62h-8.63a29.67,29.67,0,0,0-16.47,4.75q-2.28,1.5-9.89,6.75V468.16H187V326.44h17v10.3c.46-.34,1.78-1.25,3.92-2.76s3.41-2.37,3.84-2.62,1.53-.88,3.32-1.88a19.93,19.93,0,0,1,4.1-1.87c.93-.25,2.26-.63,4-1.13C225.66,325.65,233.6,325.46,233.6,325.46Z"/><path class="cls-2" d="M304.35,324.57q43.33,0,43.33,36.27V468.16h-17V457.9q-13.1,11.27-31.31,11.26-35.69,0-35.68-34.27v-8q0-26,31.06-34.52l35.93-9.75V361q-.27-10.27-5.9-15t-22.69-4.76a94.68,94.68,0,0,0-31.4,5V329.32Q285.24,324.58,304.35,324.57ZM281.7,427.79v7.53q0,10,4.87,14.79T305,454.87q13.59,0,25.65-9.77V398.21l-29.24,8q-11.55,3.25-15.65,8T281.7,427.79Z"/><path class="cls-3" d="M405.92,332.21q17-7.24,31.24-7.25t23.48,8.63q9.27,8.63,9.27,24.39v72.91q0,17.5-10.41,27.39t-27.62,9.88h-26V505.3h-18V325.46h18Zm45,28.5q0-18.25-18.81-18.26-12.19,0-26.18,6.51V452.52h21.35q23.64,0,23.64-22.26Z"/><path class="cls-3" d="M517.35,310q-11.13,0-11.13-11.51T517.35,287q11.13,0,11.13,11.5T517.35,310ZM508,326.44h18V468.16H508Z"/><path class="cls-3" d="M628,325.46h19l-34.89,71.22L647,468.16H628l-25.15-53.92L578,468.16H558.75l34.63-71.48-34.63-71.22H578l24.88,53.42Z"/><path class="cls-1" d="M48.73,523.76q11.27,0,11.26,9.16V560H56v-2.59a11.78,11.78,0,0,1-8,2.84q-9,0-9-8.65v-2q0-6.57,7.88-8.72L56,538.42v-5.57a5.18,5.18,0,0,0-1.57-4c-1-.84-3-1.27-6.05-1.27A25.31,25.31,0,0,0,40,528.91V525A28.9,28.9,0,0,1,48.73,523.76ZM43,549.57v1.85A4.89,4.89,0,0,0,44.18,555q1.2,1.17,4.53,1.17a9.8,9.8,0,0,0,6.28-2.4V542.33l-7.16,2a7.94,7.94,0,0,0-3.83,2A4.92,4.92,0,0,0,43,549.57Z"/><path class="cls-1" d="M57.64,576.65H59v3.91h-.68a8.75,8.75,0,0,0-4.57,1.21c-.43.26-1.34.83-2.75,1.73v29.31H46V575.67h4v3.57a4.66,4.66,0,0,0,1.15-.69l1-.67.84-.47a4.87,4.87,0,0,1,1-.47l1-.29A10.82,10.82,0,0,1,57.64,576.65Z"/><path class="cls-1" d="M57.64,629.43H59v3.91h-.68a8.75,8.75,0,0,0-4.57,1.21c-.43.26-1.34.83-2.75,1.73v29.31H46V628.45h4v3.46a5.16,5.16,0,0,0,1.15-.7c.54-.38.86-.6,1-.66l.84-.48a4.87,4.87,0,0,1,1-.47l1-.28A9.65,9.65,0,0,1,57.64,629.43Z"/><path class="cls-1" d="M48.73,681.12q11.27,0,11.26,9.16v27.11H56V714.8a11.83,11.83,0,0,1-8,2.84q-9,0-9-8.65v-2q0-6.57,7.88-8.72L56,695.78v-4.94a5.18,5.18,0,0,0-1.57-4c-1-.84-3-1.27-6.05-1.27A25.31,25.31,0,0,0,40,686.9v-4.58A28.9,28.9,0,0,1,48.73,681.12ZM43,707.56v1.85A4.9,4.9,0,0,0,44.18,713q1.2,1.17,4.53,1.17A9.8,9.8,0,0,0,55,711.8V700.32l-7.16,2a7.94,7.94,0,0,0-3.83,2A4.92,4.92,0,0,0,43,707.56Z"/><path class="cls-3" d="M597.88,168.83a19.88,19.88,0,0,1,7.8-1.83,8.23,8.23,0,0,1,5.88,2.18,8.06,8.06,0,0,1,2.31,6.16v18.53a9.46,9.46,0,0,1-2.44,6.92,8.6,8.6,0,0,1-6.47,2.5h-6.08v8.79h-5v-45h4Zm12,7.35q0-4.6-4.59-4.61a14.88,14.88,0,0,0-6.4,1.64v26.17h5.22q5.77,0,5.77-5.63Z"/><path class="cls-3" d="M602.62,219.79q11.25,0,11.25,9.17v27.11h-5v-2.59a11.82,11.82,0,0,1-7.94,2.84q-9,0-9-8.66v-2q0-6.57,7.88-8.72l9.11-2.47v-5.89a4.81,4.81,0,0,0-1.47-3.76q-1.41-1.19-5.67-1.19a23.8,23.8,0,0,0-7.85,1.25V221A28.85,28.85,0,0,1,602.62,219.79Zm-5.74,25.65v1.85a4.86,4.86,0,0,0,1.19,3.62c.79.78,2.3,1.17,4.52,1.17a9.78,9.78,0,0,0,6.28-2.4V238.2l-7.16,2a8,8,0,0,0-3.83,2A4.92,4.92,0,0,0,596.88,245.44Z"/><path class="cls-3" d="M603.81,268.35c-1.87,0-2.81-1-2.81-2.91s.94-2.9,2.81-2.9,2.81,1,2.81,2.9S605.69,268.35,603.81,268.35Zm-2.93,4.33h5v36.16h-5Z"/><path class="cls-3" d="M602.62,482.71q11.25,0,11.25,9.16V519h-5v-2.59a11.77,11.77,0,0,1-7.94,2.84q-9,0-9-8.65v-2q0-6.57,7.88-8.72l9.11-2.46v-5.49a4.8,4.8,0,0,0-1.47-3.76c-.94-.8-2.83-1.19-5.67-1.19a23.54,23.54,0,0,0-7.85,1.25v-4.27A28.85,28.85,0,0,1,602.62,482.71Zm6.25-8.69h3v.91a5.19,5.19,0,0,1-1.12,3.56,3.83,3.83,0,0,1-3,1.27,8.32,8.32,0,0,1-4.12-1.31,7.86,7.86,0,0,0-3.24-1.3c-1,0-1.51.67-1.51,2v.72h-3V479a5.32,5.32,0,0,1,1.12-3.55,3.84,3.84,0,0,1,3.1-1.34,8.68,8.68,0,0,1,4.29,1.34,8.62,8.62,0,0,0,3,1.33c1,0,1.45-.69,1.45-2.08Zm-12,34.74v1.84a4.87,4.87,0,0,0,1.19,3.63c.79.77,2.3,1.16,4.52,1.16a9.82,9.82,0,0,0,6.28-2.39V501.51l-7.16,2a8,8,0,0,0-3.83,2A5,5,0,0,0,596.88,508.76Z"/><path class="cls-3" d="M592.88,544.85a9.8,9.8,0,0,1,2.59-7.15c1.73-1.78,4.36-2.66,7.9-2.66s6.18.88,7.91,2.66a9.8,9.8,0,0,1,2.59,7.15v17.68a9.82,9.82,0,0,1-2.59,7.16c-1.73,1.77-4.36,2.66-7.91,2.66s-6.17-.89-7.9-2.66a9.82,9.82,0,0,1-2.59-7.16Zm17,0q0-5.93-6-5.92t-6,5.92v17.66q0,6,6,6t6-6Z"/><path class="cls-3" d="M529.85,75.25h-3.1a5.06,5.06,0,0,0-2.9.82,9,9,0,0,1,2,6.1v5a8.62,8.62,0,0,1-2.64,6.7q-2.64,2.43-8,2.49-3.68,0-3.67,3.33a2.5,2.5,0,0,0,1,2.2,5.57,5.57,0,0,0,3.21.7h4.41q8.7,0,8.7,7.5V111q0,8.27-11.49,8.27h-2.61q-6.4,0-9.9-2V112.9a18.3,18.3,0,0,0,9.56,2.42h2.21q7.23,0,7.23-4.33v-.66a4.06,4.06,0,0,0-.89-2.85c-.59-.64-1.79-1-3.59-1H515.6a10.07,10.07,0,0,1-5.75-1.39,4.64,4.64,0,0,1-2-4v-1a4.06,4.06,0,0,1,.91-2.72A4.45,4.45,0,0,1,511,95.91q-6.19-1.77-6.19-8.72v-4.7s.67-5.12,2.46-6.77,4.34-2.46,7.66-2.46,5.81.57,7.5,1.71c.86-2.53,2.82-3.8,5.88-3.63h1.5Zm-8,12.21V82.57a5,5,0,0,0-1.41-3.91c-.94-.86-2.47-1.28-4.59-1.28s-3.66.42-4.59,1.28a5,5,0,0,0-1.41,3.91v4.89a5,5,0,0,0,1.41,3.91c.93.85,2.46,1.28,4.59,1.28s3.65-.43,4.59-1.28A5,5,0,0,0,521.85,87.46Z"/><path class="cls-3" d="M523.43,126.07h1.42V130h-1.68a8.79,8.79,0,0,0-4.58,1.22l-2.74,1.73v29.31h-5V126.07h5v3.2a6.75,6.75,0,0,0,1.09-.69l1-.67.84-.47a4.84,4.84,0,0,1,1-.47l1-.29C521.43,126.47,523.43,126.07,523.43,126.07Z"/><path class="cls-3" d="M515.15,178.74q10.7,0,10.7,9.17V215h-4v-2.59a11.87,11.87,0,0,1-8,2.84q-9,0-9-8.66v-2q0-6.57,7.88-8.72l9.12-2.47V188a4.86,4.86,0,0,0-1.48-3.76q-1.41-1.18-5.67-1.19a23.54,23.54,0,0,0-7.85,1.26v-4.41A26.16,26.16,0,0,1,515.15,178.74Zm-6.3,26.19v1.84a4.87,4.87,0,0,0,1.19,3.62q1.2,1.17,4.53,1.17a9.86,9.86,0,0,0,6.28-2.39V197.68l-7.16,2a8,8,0,0,0-3.84,2A5,5,0,0,0,508.85,204.93Z"/><path class="cls-3" d="M515.85,224.79v6.84h8v3.91h-8v24a4.07,4.07,0,0,0,1.11,3.19,5.11,5.11,0,0,0,3.42,1,14.4,14.4,0,0,0,4.47-.7v4.55a21.09,21.09,0,0,1-5,.66q-9,0-9-8.32V235.54h-4v-3.91h4.36l1.35-6.84Z"/><path class="cls-3" d="M521.85,485.75h4v45.94h-4V529.6a11.19,11.19,0,0,1-7.17,2.28c-2.86,0-5-.78-6.56-2.34s-2.27-3.79-2.27-6.7V505.23a9.35,9.35,0,0,1,2.71-7.15,10.11,10.11,0,0,1,7.22-2.56h6.07Zm0,13.68h-5.1c-3.93,0-5.9,1.82-5.9,5.44v17.25q0,5.31,5,5.31a8.26,8.26,0,0,0,6-2.15Z"/><path class="cls-3" d="M515.15,547.21q10.7,0,10.7,9.17v27.11h-4V580.9a11.87,11.87,0,0,1-8,2.84q-9,0-9-8.66v-2q0-6.57,7.88-8.72l9.12-2.46v-5.19a4.83,4.83,0,0,0-1.48-3.76c-.94-.8-2.83-1.19-5.67-1.19a23.8,23.8,0,0,0-7.85,1.25v-4.57A26.15,26.15,0,0,1,515.15,547.21Zm5.7-8.68h3v.91a5.21,5.21,0,0,1-1.12,3.55,3.81,3.81,0,0,1-3,1.27,8.3,8.3,0,0,1-4.12-1.3,7.83,7.83,0,0,0-3.23-1.3c-1,0-1.52.67-1.52,2v.71h-3v-.84A5.32,5.32,0,0,1,509,540a3.81,3.81,0,0,1,3.1-1.34,8.58,8.58,0,0,1,4.29,1.34,8.56,8.56,0,0,0,3,1.33c1,0,1.45-.69,1.45-2.08Zm-12,35v1.84A4.91,4.91,0,0,0,510,579c.8.78,2.31,1.16,4.53,1.16a9.8,9.8,0,0,0,6.28-2.39V566.33l-7.16,2a7.89,7.89,0,0,0-3.84,2A4.9,4.9,0,0,0,508.85,573.57Z"/><path class="cls-3" d="M505.85,609.67a9.8,9.8,0,0,1,2.59-7.16c1.73-1.78,4.37-2.66,7.91-2.66s6.18.88,7.9,2.66a9.81,9.81,0,0,1,2.6,7.16v17.67a9.81,9.81,0,0,1-2.6,7.16c-1.72,1.77-4.36,2.66-7.9,2.66s-6.18-.89-7.91-2.66a9.8,9.8,0,0,1-2.59-7.16Zm16,0q0-5.92-6-5.92t-6,5.92v17.66q0,6,6,6t6-6Z"/><path class="cls-3" d="M419.92,246.49V229.43a9.85,9.85,0,0,1,2.62-7.17q2.63-2.69,7.94-2.69c3.55,0,6.17.9,7.88,2.69a10,10,0,0,1,2.56,7.17v11h-16v6.38a5.06,5.06,0,0,0,1.77,4.24c1.18.92,3,1.39,5.51,1.39a28,28,0,0,0,7.72-1.14V255a26.14,26.14,0,0,1-7.75,1Q419.92,256,419.92,246.49Zm4-10h12v-7.27q0-5.94-6-5.94t-6,5.94Z"/><path class="cls-3" d="M431.12,275.16a17.23,17.23,0,0,1,8.8-2.61q4.36,0,6.68,2.2a8.12,8.12,0,0,1,2.31,6.19v27.9h-5v-27.3a4.64,4.64,0,0,0-4.66-4.61,12.77,12.77,0,0,0-6.65,2.09,8.54,8.54,0,0,1,.31,2.52v27.3l-5-1v-27.3q0-4.62-4.63-4.62a14.85,14.85,0,0,0-6.37,1.65v31.24h-5V272.68h5v1.65a20.31,20.31,0,0,1,7.52-1.78A8.45,8.45,0,0,1,431.12,275.16Z"/><path class="cls-3" d="M428.66,482.71q11.25,0,11.26,9.16V519h-5v-2.59a11.8,11.8,0,0,1-7.95,2.84q-9,0-9.05-8.65v-2q0-6.57,7.88-8.72l9.12-2.46v-5.49a4.83,4.83,0,0,0-1.48-3.76c-.94-.8-2.83-1.19-5.67-1.19a23.54,23.54,0,0,0-7.85,1.25v-4.27A28.9,28.9,0,0,1,428.66,482.71Zm-5.74,26.05v1.84a4.91,4.91,0,0,0,1.19,3.63c.8.77,2.31,1.16,4.53,1.16a9.86,9.86,0,0,0,6.28-2.39V501.51l-7.16,2a7.89,7.89,0,0,0-3.83,2A4.9,4.9,0,0,0,422.92,508.76Z"/><path class="cls-3" d="M429.92,528.76v6.84h8v3.91h-8v24a4,4,0,0,0,1.11,3.19,5.06,5.06,0,0,0,3.42,1,14.69,14.69,0,0,0,4.47-.69v4.41a21.09,21.09,0,0,1-5,.66q-9,0-9-8.32V539.51h-4V535.6h4.36l1.35-6.84Z"/><path class="cls-3" d="M430.09,584.33q-2.82,0-2.82-2.91c0-1.93.94-2.9,2.82-2.9s2.81,1,2.81,2.9S432,584.33,430.09,584.33Zm-2.17,4h5v36.16h-5Z"/><path class="cls-3" d="M428.66,641q11.25,0,11.26,9.17v27.11h-5v-2.59a11.85,11.85,0,0,1-7.95,2.84q-9,0-9.05-8.66v-2q0-6.57,7.88-8.72l9.12-2.47v-5.83a4.83,4.83,0,0,0-1.48-3.76c-.94-.8-2.83-1.19-5.67-1.19a23.54,23.54,0,0,0-7.85,1.25v-3.93A28.9,28.9,0,0,1,428.66,641Zm-5.74,25.71v1.84a4.91,4.91,0,0,0,1.19,3.63c.8.77,2.31,1.16,4.53,1.16a9.86,9.86,0,0,0,6.28-2.39V659.5l-7.16,2a7.89,7.89,0,0,0-3.83,2A4.9,4.9,0,0,0,422.92,666.75Z"/><path class="cls-2" d="M302.19,479.89h5v45.93h-5Z"/><path class="cls-2" d="M295.19,569.05V552a9.82,9.82,0,0,1,2.63-7.17c1.75-1.79,4.39-2.69,7.94-2.69s6.16.9,7.87,2.69a9.94,9.94,0,0,1,2.56,7.17v11h-17v6.39a4.92,4.92,0,0,0,1.89,4.23Q303,575,307,575a31.72,31.72,0,0,0,8.23-1.14v3.76a26,26,0,0,1-7.75,1Q295.18,578.61,295.19,569.05Zm4-10h12v-7.26q0-5.94-6-5.94t-6,5.94Z"/><path class="cls-2" d="M318.19,596.19h-2.1a5.14,5.14,0,0,0-2.9.82,9.08,9.08,0,0,1,2,6.11v5a8.65,8.65,0,0,1-2.64,6.7q-2.64,2.42-8,2.48c-2.44,0-3.67,1.11-3.67,3.34a2.54,2.54,0,0,0,1,2.2,5.68,5.68,0,0,0,3.22.69h3.4q8.7,0,8.7,7.5v.84q0,8.28-11.49,8.28h-2.6q-6.42,0-9.91-2v-4.33a20,20,0,0,0,10.07,2.43h2.32q7.6,0,7.61-4.34v-.65a4,4,0,0,0-.93-2.86c-.63-.63-1.89-.95-3.78-.95h-4.54a10,10,0,0,1-5.75-1.39,4.62,4.62,0,0,1-2-4v-1a4.07,4.07,0,0,1,.91-2.71,4.47,4.47,0,0,1,2.28-1.46q-6.18-1.77-6.19-8.72v-4.58s1.18-5.12,3-6.76,4.34-2.46,7.66-2.46,5.82.56,7.5,1.7c.86-2.52,2.82-3.79,5.89-3.74h1Zm-8,12.33v-4.88a5.06,5.06,0,0,0-1.4-3.91c-.94-.86-2.47-1.29-4.6-1.29s-3.65.43-4.59,1.29a5,5,0,0,0-1.41,3.91v4.88a5,5,0,0,0,1.41,3.91q1.41,1.29,4.59,1.29c2.13,0,3.66-.43,4.6-1.29A5,5,0,0,0,310.19,608.52Z"/><path class="cls-2" d="M312.29,648h1.9v3.91h-1.68a8.75,8.75,0,0,0-4.57,1.21c-.42.26-1.34.83-2.75,1.73v29.31h-5V648h4v2.34a3,3,0,0,0,1.6-.7c.54-.38.87-.6,1-.66l.84-.47a5.28,5.28,0,0,1,1-.48l1-.28A8.52,8.52,0,0,1,312.29,648Z"/><path class="cls-2" d="M305.08,696.24c-1.87,0-2.81-1-2.81-2.91s.94-2.9,2.81-2.9,2.82,1,2.82,2.9S307,696.24,305.08,696.24Zm-2.89,4.53h5v36.17h-5Z"/><path class="cls-2" d="M303.93,752.46q11.26,0,11.26,9.17v27.11h-5v-2.59a11.82,11.82,0,0,1-7.94,2.84q-9.06,0-9.06-8.66v-2q0-6.57,7.88-8.72l9.12-2.46v-5.36a4.79,4.79,0,0,0-1.47-3.75c-.94-.8-2.83-1.19-5.67-1.19a23.6,23.6,0,0,0-7.86,1.25v-4.41A28.88,28.88,0,0,1,303.93,752.46Zm-5.74,26.2v1.84a4.87,4.87,0,0,0,1.2,3.63c.79.77,2.3,1.16,4.52,1.16a9.84,9.84,0,0,0,6.28-2.39V771.41l-7.16,2a8,8,0,0,0-3.83,2A5,5,0,0,0,298.19,778.66Z"/><path class="cls-2" d="M189,228.59q0-9.24,11-9.25a23.62,23.62,0,0,1,7,.9v4.19a25.64,25.64,0,0,0-6.66-.82q-3.59,0-5,1.22a4.82,4.82,0,0,0-1.38,3.79v18.27a4.73,4.73,0,0,0,1.37,3.78c.9.79,2.59,1.18,5,1.18a20.42,20.42,0,0,0,6.59-1v4.29a28.32,28.32,0,0,1-7,.9q-10.95,0-11-9.06Z"/><path class="cls-2" d="M187,281.54a9.81,9.81,0,0,1,2.6-7.16c1.72-1.77,4.36-2.66,7.9-2.66s6.18.89,7.91,2.66a9.8,9.8,0,0,1,2.59,7.16v17.67a9.8,9.8,0,0,1-2.59,7.16q-2.6,2.65-7.91,2.66c-3.54,0-6.18-.89-7.9-2.66a9.81,9.81,0,0,1-2.6-7.16Zm16,0c0-4-2-5.93-6-5.93s-6,2-6,5.93V299.2q0,6,6,6t6-6Z"/><path class="cls-2" d="M195.7,482.71q11.27,0,11.26,9.16V519h-5v-2.59a11.77,11.77,0,0,1-7.94,2.84q-9.06,0-9.06-8.65v-2q0-6.57,7.88-8.72l9.12-2.46v-5.49a4.8,4.8,0,0,0-1.47-3.76c-.94-.8-2.83-1.19-5.67-1.19a23.6,23.6,0,0,0-7.86,1.25v-4.27A28.9,28.9,0,0,1,195.7,482.71ZM190,508.76v1.84a4.87,4.87,0,0,0,1.2,3.63c.79.77,2.3,1.16,4.52,1.16A9.84,9.84,0,0,0,202,513V501.51l-7.16,2a8,8,0,0,0-3.83,2A5,5,0,0,0,190,508.76Z"/><path class="cls-2" d="M210,537.55h-2.1a5.11,5.11,0,0,0-2.89.82,9,9,0,0,1,2,6.1v5a8.66,8.66,0,0,1-2.64,6.71q-2.64,2.41-8,2.48c-2.44,0-3.67,1.11-3.67,3.33a2.54,2.54,0,0,0,1,2.21,5.68,5.68,0,0,0,3.22.69h3.4q8.7,0,8.7,7.5v.84q0,8.26-11.49,8.27h-2.6q-6.42,0-9.91-2V575.2A20,20,0,0,0,195,577.62h2.32q7.6,0,7.61-4.33v-.65a3.94,3.94,0,0,0-.93-2.86c-.63-.63-1.89-.95-3.78-.95h-3.64s-4.57-.59-6-1.52a3.67,3.67,0,0,1-1.7-4v-1a2.61,2.61,0,0,1,.57-2.71,4.65,4.65,0,0,1,2.36-1.46c-4.27-1.18-6.93-8.72-6.93-8.72v-5.05s1.42-5.12,3.21-6.76,4.34-2.47,7.66-2.47,5.82.57,7.5,1.71c.86-2.53,2.82-3.8,5.88-3.15H210Zm-8,11.73v-4.89a5.07,5.07,0,0,0-1.4-3.91c-.94-.85-2.47-1.28-4.6-1.28s-3.65.43-4.59,1.28a5,5,0,0,0-1.41,3.91v4.89a5,5,0,0,0,1.41,3.91c.94.85,2.47,1.28,4.59,1.28s3.66-.43,4.6-1.28A5.07,5.07,0,0,0,202,549.28Z"/><path class="cls-2" d="M187,615.13V597.91a9.83,9.83,0,0,1,2.63-7.18c1.75-1.79,4.39-2.68,7.94-2.68s6.16.89,7.87,2.68a10,10,0,0,1,2.56,7.18v11H192v6.38a5,5,0,0,0,1.78,4.24q1.77,1.4,5.5,1.39a28,28,0,0,0,7.72-1.14v3.9a26,26,0,0,1-7.75,1Q187,624.69,187,615.13ZM191,605h12v-7.27q0-5.94-6-5.94t-6,5.94Z"/><path class="cls-2" d="M197.16,643.63A17.34,17.34,0,0,1,206,641c2.92,0,5.14.73,6.69,2.19a8.14,8.14,0,0,1,2.31,6.2v27.9h-4V650a4.64,4.64,0,0,0-4.66-4.61,12.79,12.79,0,0,0-6.65,2.09A8.24,8.24,0,0,1,200,650v27.3h-5V650q0-4.62-4.62-4.62a14.81,14.81,0,0,0-6.37,1.65v30.27h-5V641.15h4v1.66a20,20,0,0,1,7.51-1.78A8.48,8.48,0,0,1,197.16,643.63Z"/><path class="cls-1" d="M132.7,8.59A8.49,8.49,0,0,1,135,2.24Q137.29,0,141.75,0a21.2,21.2,0,0,1,2.95.19V4.11a10.42,10.42,0,0,0-2.5-.25q-4.5,0-4.5,4.58v2.3h7v3.91h-7V46.91h-5V14.65h-4V10.74h4Z"/><path class="cls-1" d="M134.44,64.39q11.25,0,11.26,9.16v27.11h-5V98.07a11.82,11.82,0,0,1-7.95,2.85q-9,0-9-8.66v-2c0-4.39,2.63-7.29,7.88-8.73l9.12-2.46V73.54a4.86,4.86,0,0,0-1.48-3.76q-1.41-1.19-5.67-1.19a23.8,23.8,0,0,0-7.85,1.25V65.59A28.9,28.9,0,0,1,134.44,64.39Zm-5.74,26v1.84a4.87,4.87,0,0,0,1.19,3.62c.8.78,2.3,1.17,4.52,1.17a9.82,9.82,0,0,0,6.29-2.4V83.18l-7.16,2a7.9,7.9,0,0,0-3.84,2A4.93,4.93,0,0,0,128.7,90.43Z"/><path class="cls-1" d="M136.9,120.73a17.31,17.31,0,0,1,8.8-2.6q4.37,0,6.68,2.19a8.14,8.14,0,0,1,2.31,6.2v27.9h-5v-27.3A4.63,4.63,0,0,0,145,122.5a12.83,12.83,0,0,0-6.66,2.09,8.25,8.25,0,0,1,.32,2.53v27.3h-5v-27.3q0-4.62-4.63-4.62a14.81,14.81,0,0,0-6.37,1.65v30.27h-5V118.26h5v1.65a20.07,20.07,0,0,1,7.52-1.78A8.48,8.48,0,0,1,136.9,120.73Z"/><path class="cls-1" d="M133.7,173h5v36.16h-5Zm3.15-9.78h4.38l-3.92,6.85h-3Z"/><path class="cls-1" d="M133.7,217h5v45.94h-5Z"/><path class="cls-1" d="M134.44,489.55q11.25,0,11.26,9.16v27.11h-5v-2.59a11.82,11.82,0,0,1-7.95,2.85q-9,0-9-8.66v-2q0-6.58,7.88-8.72l9.12-2.47V498.8a4.85,4.85,0,0,0-1.48-3.76q-1.41-1.19-5.67-1.19a23.8,23.8,0,0,0-7.85,1.25v-4.35A28.9,28.9,0,0,1,134.44,489.55Zm-5.74,26.13v1.85a4.9,4.9,0,0,0,1.19,3.62c.8.78,2.3,1.17,4.52,1.17a9.82,9.82,0,0,0,6.29-2.4V508.44l-7.16,2a8,8,0,0,0-3.84,2A4.92,4.92,0,0,0,128.7,515.68Z"/></g></g></svg>