<?xml version="1.0" encoding="iso-8859-1"?>
<!-- Generator: Adobe Illustrator 19.0.0, SVG Export Plug-In . SVG Version: 6.00 Build 0)  -->
<svg version="1.1" id="Layer_1" xmlns="http://www.w3.org/2000/svg" xmlns:xlink="http://www.w3.org/1999/xlink" x="0px" y="0px"
	 viewBox="0 0 430.4 430.4" style="enable-background:new 0 0 430.4 430.4;" xml:space="preserve">
<path style="fill:#D9CDC1;" d="M408.8,316c4,4,6.4,8,6.4,13.6c0,9.6-8.8,20-27.2,20c-4.8,0-8,4-8,8c0,4.8,3.2,8,8,8
	c16.8,0,24,10.4,24,20.8c0,5.6-2.4,10.4-5.6,14.4c-4,4-10.4,6.4-17.6,6.4L151.2,400l-32.8-22.4V212.8l35.2-12.8
	c1.6-0.8,2.4-1.6,3.2-2.4l40.8-47.2c1.6-1.6,1.6-3.2,1.6-4.8V36c0-4,1.6-8,4-10.4c0.8-0.8,3.2-2.4,5.6-2.4h16
	c18.4,0,33.6,18.4,33.6,40.8l0.8,126.4c0,4,3.2,8,8,8l120,1.6c16.8,0,24.8,9.6,24.8,19.2c0,4.8-2.4,9.6-5.6,12.8
	c-4.8,4-11.2,6.4-19.2,6.4c-4.8,0-8,3.2-8,8c0,4,3.2,8,8,8c17.6,0,26.4,9.6,26.4,19.2c0,4.8-2.4,9.6-5.6,12.8c-4.8,4-12,6.4-20,6.4
	c-4.8,0-8,4-8,8s3.2,8,8,8C396.8,308.8,404,311.2,408.8,316z"/>
<path style="fill:#FFF8EF;" d="M388.8,407.2c4.8,0,9.6-0.8,12.8-3.2c1.6-3.2,2.4-6.4,2.4-9.6c0-10.4-7.2-20.8-24-20.8
	c-4,0-8-3.2-8-8c0-4,4-8,8-8c0-4,4-8,8-8c7.2,0,12.8-1.6,16.8-4c1.6-2.4,2.4-5.6,2.4-8c0-4.8-2.4-9.6-6.4-13.6
	c-4.8-4-12-6.4-20.8-6.4c-4.8,0-8-4-8-8s3.2-8,8-8c0-4,3.2-8,8-8c6.4,0,12-1.6,16-4c0.8-2.4,1.6-4.8,1.6-7.2c0-9.6-8-19.2-26.4-19.2
	c-4.8,0-8-4-8-8c0-4.8,3.2-8,8-8c0-4.8,3.2-8,8-8c5.6,0,11.2-0.8,15.2-3.2c1.6-2.4,1.6-4.8,1.6-8c0-9.6-8-19.2-24.8-19.2l-120-1.6
	c-4,0-8-4-8-8l0-127.2c0-22.4-15.2-40.8-33.6-40.8h-16h-0.8c-0.8,1.6-0.8,3.2-0.8,4.8v109.6c0,1.6-0.8,4-1.6,4.8l-40.8,47.2
	c-0.8,0.8-1.6,1.6-3.2,2.4l-4.8,5.6c-0.8,0.8-2.4,1.6-3.2,2.4l-27.2,10.4v160l32.8,22.4L388.8,407.2z"/>
<path style="fill:#1D9AAE;" d="M102.4,195.2v184c0,10.4-8,18.4-18.4,18.4H34.4c-10.4,0-18.4-8-18.4-18.4v-184
	c0-10.4,8-18.4,18.4-18.4h50.4C94.4,176.8,102.4,184.8,102.4,195.2z"/>
<path style="fill:#2FB4C2;" d="M68,192.8H17.6c-0.8,0-1.6,0-2.4,0c0,0.8,0,1.6,0,2.4v184c0,10.4,8,18.4,18.4,18.4H84
	c0.8,0,1.6,0,2.4,0c0-0.8,0-1.6,0-2.4v-184C86.4,200.8,78.4,192.8,68,192.8z"/>
<path style="fill:#42210B;" d="M102.4,379.2v-184c0-10.4-8-18.4-18.4-18.4H34.4c-10.4,0-18.4,8-18.4,18.4v184
	c0,10.4,8,18.4,18.4,18.4h50.4C94.4,397.6,102.4,389.6,102.4,379.2z M197.6,150.4l-40.8,47.2c-0.8,0.8-2.4,1.6-3.2,2.4l-35.2,12.8
	v164.8l32.8,22.4l237.6,7.2c7.2,0,13.6-2.4,17.6-6.4s5.6-8.8,5.6-14.4c0-10.4-7.2-20.8-24-20.8c-4.8,0-8-3.2-8-8c0-4,3.2-8,8-8
	c18.4,0,27.2-10.4,27.2-20c0-4.8-2.4-9.6-6.4-13.6c-4.8-4-12-6.4-20.8-6.4c-4.8,0-8-4-8-8s3.2-8,8-8c8.8,0,15.2-2.4,20-6.4
	c4-3.2,5.6-8,5.6-12.8c0-9.6-8-19.2-26.4-19.2c-4.8,0-8-4-8-8c0-4.8,3.2-8,8-8c8,0,14.4-2.4,19.2-6.4c4-3.2,5.6-8,5.6-12.8
	c0-9.6-8-19.2-24.8-19.2l-120-1.6c-4,0-8-4-8-8l0-127.2c0-22.4-15.2-40.8-33.6-40.8h-16c-2.4,0-4.8,1.6-5.6,2.4
	c-2.4,2.4-4,6.4-4,10.4v109.6C200,147.2,199.2,148.8,197.6,150.4z M184,36c0-8,3.2-16,8.8-21.6c4.8-4.8,11.2-7.2,16.8-7.2l0,0h16
	c27.2,0,49.6,25.6,49.6,56.8l0.8,119.2l112,1.6c26.4,0,40.8,17.6,40.8,35.2c0,10.4-4.8,20-13.6,26.4c9.6,6.4,14.4,16.8,14.4,27.2
	c0,10.4-4.8,20-14.4,27.2c1.6,0.8,2.4,1.6,4,3.2c7.2,6.4,11.2,16,11.2,25.6c0,11.2-5.6,22.4-16,28.8c8.8,7.2,12.8,17.6,12.8,28
	c0,9.6-4,18.4-10.4,25.6c-4.8,5.6-14.4,11.2-29.6,11.2l-240-7.2c-1.6,0-3.2-0.8-4-1.6l-28.8-20c-5.6,11.2-16.8,19.2-30.4,19.2H34.4
	C15.2,413.6,0,398.4,0,379.2v-184c0-19.2,15.2-34.4,34.4-34.4h50.4c19.2,0,34.4,15.2,34.4,34.4v0.8l28-10.4l37.6-44V36H184z"/>
<g>
</g>
<g>
</g>
<g>
</g>
<g>
</g>
<g>
</g>
<g>
</g>
<g>
</g>
<g>
</g>
<g>
</g>
<g>
</g>
<g>
</g>
<g>
</g>
<g>
</g>
<g>
</g>
<g>
</g>
</svg>
