<svg xmlns="http://www.w3.org/2000/svg" viewBox="0 0 297.52 329.66"><defs><style>.cls-1{fill:#30b4c3;}.cls-2{fill:#412413;}.cls-3{fill:#cc9967;}.cls-4{fill:#ef7c1a;}.cls-5{fill:#f4991a;}.cls-6{fill:#d9cdc1;}.cls-7{fill:#fff9f0;}.cls-8{fill:#eb5758;}.cls-9{fill:#e5c7a1;}.cls-10{fill:#b37d4e;}</style></defs><title>Ativo 1</title><g id="Camada_2" data-name="Camada 2"><g id="Camada_1-2" data-name="Camada 1"><circle class="cls-1" cx="148.76" cy="48.08" r="5.31" transform="translate(77.47 187.22) rotate(-80.78)"/><rect class="cls-2" x="260.33" y="319.04" width="31.88" height="10.63"/><rect class="cls-2" x="217.83" y="170.28" width="37.19" height="10.63"/><rect class="cls-2" x="217.83" y="133.09" width="37.19" height="10.63"/><polygon class="cls-3" points="205.08 319.04 96.16 319.04 108.91 303.1 148.76 303.1 148.76 292.47 111.57 292.47 111.57 265.91 185.95 265.91 185.95 292.47 170.01 292.47 170.01 303.1 189.14 303.1 205.08 319.04"/><path class="cls-3" d="M148.76,255.28a15.94,15.94,0,1,0,0-31.87H286.9v23.37a8.39,8.39,0,0,1-8.5,8.5H148.76Z"/><rect class="cls-2" x="143.45" y="74.65" width="10.63" height="26.56"/><rect class="cls-2" x="143.45" y="111.84" width="10.63" height="10.63"/><polygon class="cls-2" points="149.29 159.65 148.76 159.65 143.45 159.65 143.45 149.03 154.07 149.03 154.07 159.65 149.29 159.65"/><path class="cls-2" d="M143.45,48.08a5.31,5.31,0,1,0,5.31-5.31A5.32,5.32,0,0,0,143.45,48.08Zm-10.63,0a16.35,16.35,0,0,1,15.94-15.94,15.94,15.94,0,0,1,0,31.88A16.35,16.35,0,0,1,132.82,48.08Z"/><path class="cls-2" d="M148.76,234a5.32,5.32,0,1,0,5.31,5.32A5.71,5.71,0,0,0,148.76,234Zm-15.94,5.32a16,16,0,0,1,15.94-15.94,15.94,15.94,0,1,1,0,31.87A16,16,0,0,1,132.82,239.35Z"/><path class="cls-4" d="M143.45,101.21h10.62V74.65H143.45v26.56Zm0,21.25h10.62V111.84H143.45v10.62ZM132.82,48.08A16.35,16.35,0,0,0,148.76,64a15.94,15.94,0,0,0,0-31.88A16.35,16.35,0,0,0,132.82,48.08Zm53.13,85H111.57v-8.5l14.35-14.35a4.82,4.82,0,0,0,1.59-3.72V23.11l21.25-11.69L170,23.11v83.41a4.79,4.79,0,0,0,1.6,3.72L186,124.59Z"/><path class="cls-5" d="M168.42,110.24c-1.06-1.06-1.06-2.12-1.06-3.72V39.05a28.94,28.94,0,0,0-13.29-24.44l-5.31-3.19L144,14.61A28.28,28.28,0,0,0,130.7,39.05v67.47a7.56,7.56,0,0,1-1.07,3.72l-7.43,8a25.37,25.37,0,0,0-5.32,14.88h63.76a25.43,25.43,0,0,0-5.31-14.88Zm-14.35,12.22H143.45V111.84h10.62Zm0-21.25H143.45V74.65h10.62ZM148.76,64a16,16,0,0,1-15.94-15.94,15.94,15.94,0,1,1,31.88,0A16,16,0,0,1,148.76,64Z"/><path class="cls-3" d="M148.76,255.28H19.13a8.38,8.38,0,0,1-8.5-8.5V223.41H148.76a15.94,15.94,0,1,0,0,31.87Z"/><path class="cls-6" d="M122.2,186.22a5.31,5.31,0,1,0,10.62,0,16,16,0,0,1,15.94-15.94,15.65,15.65,0,0,1,15.94,15.94,5.32,5.32,0,0,0,10.63,0A10.63,10.63,0,1,1,186,196.84H111.57a10.63,10.63,0,1,1,10.63-10.62Z"/><path class="cls-7" d="M186,186.22a10.65,10.65,0,0,0-10.62,10.62H186a10.27,10.27,0,0,0,9-5.31A10.27,10.27,0,0,0,186,186.22Z"/><path class="cls-7" d="M111.57,186.22a10.27,10.27,0,0,0-9,5.31,10.27,10.27,0,0,0,9,5.31H122.2A10.66,10.66,0,0,0,111.57,186.22Z"/><path class="cls-7" d="M148.76,180.9a15.66,15.66,0,0,0-15.94,15.94H164.7A15.66,15.66,0,0,0,148.76,180.9Z"/><rect class="cls-2" x="42.5" y="170.28" width="37.19" height="10.63"/><circle class="cls-8" cx="58.44" cy="138.4" r="10.63"/><path class="cls-2" d="M58.44,149A10.63,10.63,0,1,0,47.82,138.4,10.66,10.66,0,0,0,58.44,149ZM79.69,138.4a21.25,21.25,0,1,1-21.25-21.25A21.31,21.31,0,0,1,79.69,138.4Z"/><path class="cls-7" d="M182.76,106.52,195,118.74a4.82,4.82,0,0,1,1.6,3.72V138.4a5.71,5.71,0,0,1-5.32,5.31H122.2v10.63H111.57V143.71h-5.31a5.71,5.71,0,0,1-5.32-5.31V122.46a4.86,4.86,0,0,1,1.6-3.72l12.22-12.22H26.56v90.32h67c-1.6-3.19-3.19-6.9-3.19-10.62A21.31,21.31,0,0,1,111.57,165v-5.32H122.2v8.5a30.89,30.89,0,0,1,4.25,3.19,26.9,26.9,0,0,1,22.31-11.69h-5.31V149h10.62v10.62h-4.78a26.66,26.66,0,0,1,21.78,11.69c1.6-1.59,2.66-2.66,4.79-3.19V154.34h10.62V165a21.31,21.31,0,0,1,21.25,21.25,19.17,19.17,0,0,1-3.18,10.62H271V106.52ZM79.69,180.9H42.5V170.28H79.69ZM58.44,159.65A21.25,21.25,0,1,1,79.69,138.4,21.31,21.31,0,0,1,58.44,159.65ZM255,180.9H217.83V170.28H255Zm0-37.19H217.83V133.09H255Z"/><path class="cls-9" d="M116.88,90.58V95.9H21.25a5.32,5.32,0,0,0-5.31,5.31v101a5.32,5.32,0,0,0,5.31,5.31h255a5.71,5.71,0,0,0,5.31-5.31V101.21a5.7,5.7,0,0,0-5.31-5.31H180.64V90.58H278.4a8.4,8.4,0,0,1,8.5,8.51V212.78H10.63V99.09a8.39,8.39,0,0,1,8.5-8.51Z"/><path class="cls-2" d="M106.26,255.28H278.4a8.39,8.39,0,0,0,8.5-8.5V223.41H10.63v23.37a8.38,8.38,0,0,0,8.5,8.5ZM186,265.91H111.57v26.56h37.19V303.1H108.91L96.16,319H205.08L189.14,303.1H170V292.47H186Zm-69.07-170V90.58H19.13a8.39,8.39,0,0,0-8.5,8.51V212.78H286.9V99.09a8.4,8.4,0,0,0-8.5-8.51H180.64V95.9h95.63a5.7,5.7,0,0,1,5.31,5.31v101a5.71,5.71,0,0,1-5.31,5.31h-255a5.32,5.32,0,0,1-5.31-5.31V101.21a5.32,5.32,0,0,1,5.31-5.31Zm9,14.34-14.35,14.35v8.5H186v-8.5l-14.34-14.35a4.79,4.79,0,0,1-1.6-3.72V23.11L148.76,11.42,127.51,23.11v83.41A4.82,4.82,0,0,1,125.92,110.24Zm1.59,81.29a5.71,5.71,0,0,1-5.31-5.31,10.63,10.63,0,1,0-10.63,10.62H186a10.63,10.63,0,1,0-10.62-10.62,5.32,5.32,0,0,1-10.63,0,15.65,15.65,0,0,0-15.94-15.94,16,16,0,0,0-15.94,15.94A5.71,5.71,0,0,1,127.51,191.53Zm-8-176.39L146.1.8a4.81,4.81,0,0,1,5.32,0L178,15.14a5.57,5.57,0,0,1,2.66,4.78V80H278.4a19,19,0,0,1,19.12,19.13V246.78a19,19,0,0,1-19.12,19.13H196.58v29.75L220,319h24.44v10.62H15.94V319H82.35l18.59-22.85V265.91H19.13A19,19,0,0,1,0,246.78V99.09A19,19,0,0,1,19.13,80h97.75v-60A5.59,5.59,0,0,1,119.54,15.14Zm2.66,153,4.78,3.19a26.66,26.66,0,0,1,21.78-11.69h.53a26.66,26.66,0,0,1,21.78,11.69c1.6-1.59,2.66-2.66,4.79-3.19V154.34h10.62V165a21.31,21.31,0,0,1,21.25,21.25,19.17,19.17,0,0,1-3.18,10.62H271V106.52h-88.2L195,118.74a4.82,4.82,0,0,1,1.6,3.72V138.4a5.71,5.71,0,0,1-5.32,5.31H122.2v10.63H111.57V143.71h-5.31a5.71,5.71,0,0,1-5.32-5.31V122.46a4.86,4.86,0,0,1,1.6-3.72l12.22-12.22H26.56v90.32h67a19.1,19.1,0,0,1-3.19-10.62A21.31,21.31,0,0,1,111.57,165v-5.32H122.2Z"/><path class="cls-6" d="M69.07,106.52l-28.16,4.25a9.9,9.9,0,0,0-9,10.1V183a9.89,9.89,0,0,0,9,10.09l28.16,3.72H26.56V106.52Z"/><path class="cls-6" d="M228.45,106.52l28.16,4.25a9.9,9.9,0,0,1,9,10.1V183a9.89,9.89,0,0,1-9,10.09l-28.16,3.72H271V106.52Z"/><path class="cls-10" d="M19.13,255.28H148.76A15.22,15.22,0,0,1,137.07,250H21.25a5.32,5.32,0,0,1-5.31-5.31V223.41H10.63v23.37A8.38,8.38,0,0,0,19.13,255.28Z"/><path class="cls-10" d="M281.58,223.41v21.25a5.32,5.32,0,0,1-5.31,5.31H160.45c-3.19,3.19-6.91,5.31-11.69,5.31H278.4a8.39,8.39,0,0,0,8.5-8.5V223.41Z"/><path class="cls-10" d="M186,265.91l-58.44,4.25a15.36,15.36,0,0,0-13.28,11.16l-2.66,11.15V265.91Z"/></g></g></svg>